<svg xmlns="http://www.w3.org/2000/svg" width="980" height="520" viewBox="0 0 980 520">
<rect width="100%" height="100%" fill="#ffffff"/>
<text x="490" y="42" text-anchor="middle" font-family="Arial, Helvetica, sans-serif" font-size="24" font-weight="700">sqlfluff__sqlfluff-2419 API time comparison</text>
<text x="490" y="74" text-anchor="middle" font-family="Arial, Helvetica, sans-serif" font-size="14" fill="#555">
clean: 210,642 ms | og-memory: 185,554 ms
</text>
<path d="M 260.00 260.00 L 260.00 100.00 A 160.00 160.00 0 1 1 228.38 416.84 Z" fill="#2f6fed"/>
<path d="M 260.00 260.00 L 228.38 416.84 A 160.00 160.00 0 0 1 260.00 100.00 Z" fill="#f08a24"/>
<line x1="419.21" y1="275.89" x2="542" y2="295" stroke="#666" stroke-width="1.5"/>
<circle cx="419.21" cy="275.89" r="3.5" fill="#666"/>
<text x="560" y="300" text-anchor="start" font-family="Arial, Helvetica, sans-serif" font-size="13" fill="#111">clean: 210,642 ms (53.2%)</text>
<line x1="100.79" y1="244.11" x2="542" y2="331" stroke="#666" stroke-width="1.5"/>
<circle cx="100.79" cy="244.11" r="3.5" fill="#666"/>
<text x="560" y="336" text-anchor="start" font-family="Arial, Helvetica, sans-serif" font-size="13" fill="#111">og-memory: 185,554 ms (46.8%)</text>
<rect x="560" y="175" width="18" height="18" fill="#2f6fed" rx="3"/>
<text x="586" y="189" font-family="Arial, Helvetica, sans-serif" font-size="13" fill="#222">clean</text>
<rect x="560" y="203" width="18" height="18" fill="#f08a24" rx="3"/>
<text x="586" y="217" font-family="Arial, Helvetica, sans-serif" font-size="13" fill="#222">og-memory</text>
<text x="560" y="280" font-family="Arial, Helvetica, sans-serif" font-size="14" fill="#444">This pie chart shows only API time, not wall-clock time.</text>
</svg>